# xmcd
#
# Track frame offsets:
#	150
#	19445
#	35911
#	51848
#	69674
#	82350
#	85998
#	102212
#	113337
#	126397
#	143264
#	158155
#
# Disc length: 2301 seconds
#
# Revision: 1
# Processed by: cddbd v1.5.2PL0 Copyright (c) Steve Scherf et al.
# Submitted via: audiograbber 1.83.01
#
DISCID=a408fb0c
DTITLE=папафоцкоу сожиа [2003] - оса соу лоиафоум
DYEAR=1900
DGENRE=
TTITLE0=о поталос [стивои: хамасгс папайымстамтимоу]
TTITLE1=амаса тгс бяовгс
TTITLE2=с' аккг цг [йатсоукгс]
TTITLE3=оса соу лоиафоум [акйимоос]
TTITLE4=стабемто [акйимоос]
TTITLE5=танили
TTITLE6=баяиа йаядиа [йатсоукгс]
TTITLE7=стом йаимоуяио оуяамо [акйимоос]
TTITLE8=амелайи [йатсоукгР]
TTITLE9=цяажы йаты ап то жыс
TTITLE10=йакгмувта
TTITLE11=атитко
EXTD=
EXTT0=
EXTT1=
EXTT2=
EXTT3=
EXTT4=
EXTT5=
EXTT6=
EXTT7=
EXTT8=
EXTT9=
EXTT10=
EXTT11=
PLAYORDER=
